mtllib model_53.mtl
o model_53
v 16.783390045166016 -9.553263806113058e-14 430.239990234375 
v 23.783390045166016 -9.553263806113058e-14 430.239990234375 
v 16.783390045166016 -9.397832582665536e-14 423.239990234375 
v 23.783390045166016 -9.397832582665536e-14 423.239990234375 
vn 0 1 2.2204500197172533e-16 
vn 0 1 2.2204500197172533e-16 
vn 0 1 2.2204500197172533e-16 
vn 0 1 2.2204500197172533e-16 
vt 1.0000005960464478 0 
vt 1.0000005960464478 1.0000005960464478 
vt 0 0 
vt 0 1.0000005960464478 
s on 
f 1/1/1 2/2/2 3/3/3 
f 2/2/2 4/4/4 3/3/3 

