mtllib model_27.mtl
o model_27
v -33.85361099243164 1.653540015220642 374.739990234375 
v -33.636287689208984 1.653540015220642 374.739990234375 
v -33.85361099243164 1.9999959468841553 374.739990234375 
v -32.65361404418945 1.9999959468841553 374.739990234375 
v -32.870933532714844 1.653540015220642 374.739990234375 
v -32.65361404418945 1.653540015220642 374.739990234375 
v -32.65361404418945 1.653540015220642 370.739990234375 
v -32.65361404418945 1.9999959468841553 370.739990234375 
v -32.870933532714844 1.653540015220642 370.739990234375 
v -33.85361099243164 1.9999959468841553 370.739990234375 
v -33.636287689208984 1.653540015220642 370.739990234375 
v -33.85361099243164 1.653540015220642 370.739990234375 
v -33.85361099243164 1.9999959468841553 374.739990234375 
v -33.85361099243164 1.9999959468841553 370.739990234375 
v -32.65361404418945 1.9999959468841553 374.739990234375 
v -32.65361404418945 1.9999959468841553 370.739990234375 
v -33.636287689208984 -8.32091421590006e-14 374.739990234375 
v -33.636287689208984 -8.232096373930048e-14 370.739990234375 
v -33.636287689208984 1.653540015220642 374.739990234375 
v -33.636287689208984 1.653540015220642 370.739990234375 
v -33.636287689208984 1.653540015220642 374.739990234375 
v -33.636287689208984 1.653540015220642 370.739990234375 
v -33.85361099243164 1.653540015220642 374.739990234375 
v -33.85361099243164 1.653540015220642 370.739990234375 
v -33.85361099243164 1.653540015220642 374.739990234375 
v -33.85361099243164 1.653540015220642 370.739990234375 
v -33.85361099243164 1.9999959468841553 374.739990234375 
v -33.85361099243164 1.9999959468841553 370.739990234375 
v -32.870933532714844 -8.32091421590006e-14 374.739990234375 
v -33.636287689208984 -8.32091421590006e-14 374.739990234375 
v -32.870933532714844 1.653540015220642 374.739990234375 
v -33.636287689208984 1.653540015220642 374.739990234375 
v -32.870933532714844 -8.232096373930048e-14 370.739990234375 
v -32.870933532714844 -8.32091421590006e-14 374.739990234375 
v -32.870933532714844 1.653540015220642 370.739990234375 
v -32.870933532714844 1.653540015220642 374.739990234375 
v -32.870933532714844 1.653540015220642 370.739990234375 
v -32.870933532714844 1.653540015220642 374.739990234375 
v -32.65361404418945 1.653540015220642 370.739990234375 
v -32.65361404418945 1.653540015220642 374.739990234375 
v -32.65361404418945 1.653540015220642 370.739990234375 
v -32.65361404418945 1.653540015220642 374.739990234375 
v -32.65361404418945 1.9999959468841553 370.739990234375 
v -32.65361404418945 1.9999959468841553 374.739990234375 
v -33.636287689208984 -8.232096373930048e-14 370.739990234375 
v -32.870933532714844 -8.232096373930048e-14 370.739990234375 
v -33.636287689208984 1.653540015220642 370.739990234375 
v -32.870933532714844 1.653540015220642 370.739990234375 
vn 3.097898456858039e-13 0.002184694167226553 0.999997615814209 
vn 3.097898456858039e-13 0.002184694167226553 0.999997615814209 
vn 3.097898456858039e-13 0.002184694167226553 0.999997615814209 
vn 3.097898456858039e-13 0.002184694167226553 0.999997615814209 
vn 3.097898456858039e-13 0.002184694167226553 0.999997615814209 
vn 3.097898456858039e-13 0.002184694167226553 0.999997615814209 
vn -1.0341130485562108e-13 0.002184694167226553 -0.999997615814209 
vn -1.0341130485562108e-13 0.002184694167226553 -0.999997615814209 
vn -1.0341130485562108e-13 0.002184694167226553 -0.999997615814209 
vn -1.0341130485562108e-13 0.002184694167226553 -0.999997615814209 
vn -1.0341130485562108e-13 0.002184694167226553 -0.999997615814209 
vn -1.0341130485562108e-13 0.002184694167226553 -0.999997615814209 
vn 0 1 2.2204500197172533e-16 
vn 0 1 2.2204500197172533e-16 
vn 0 1 2.2204500197172533e-16 
vn 0 1 2.2204500197172533e-16 
vn -0.999997615814209 -0.002184694167226553 2.0682212182026455e-13 
vn -0.999997615814209 -0.002184694167226553 2.0682212182026455e-13 
vn -0.999997615814209 -0.002184694167226553 2.0682212182026455e-13 
vn -0.999997615814209 -0.002184694167226553 2.0682212182026455e-13 
vn 2.0682311115474694e-13 -1 -2.2204500197172533e-16 
vn 2.0682311115474694e-13 -1 -2.2204500197172533e-16 
vn 2.0682311115474694e-13 -1 -2.2204500197172533e-16 
vn 2.0682311115474694e-13 -1 -2.2204500197172533e-16 
vn -0.999997615814209 0.002184694167226553 2.0682309760221979e-13 
vn -0.999997615814209 0.002184694167226553 2.0682309760221979e-13 
vn -0.999997615814209 0.002184694167226553 2.0682309760221979e-13 
vn -0.999997615814209 0.002184694167226553 2.0682309760221979e-13 
vn 3.097898456858039e-13 0.002184694167226553 0.999997615814209 
vn 3.097898456858039e-13 0.002184694167226553 0.999997615814209 
vn 3.097898456858039e-13 0.002184694167226553 0.999997615814209 
vn 3.097898456858039e-13 0.002184694167226553 0.999997615814209 
vn 0.999997615814209 -0.002184694167226553 -4.851004321232411e-19 
vn 0.999997615814209 -0.002184694167226553 -4.851004321232411e-19 
vn 0.999997615814209 -0.002184694167226553 -4.851004321232411e-19 
vn 0.999997615814209 -0.002184694167226553 -4.851004321232411e-19 
vn -2.0682311115474694e-13 -1 -2.2204500197172533e-16 
vn -2.0682311115474694e-13 -1 -2.2204500197172533e-16 
vn -2.0682311115474694e-13 -1 -2.2204500197172533e-16 
vn -2.0682311115474694e-13 -1 -2.2204500197172533e-16 
vn 0.999997615814209 0.002184694167226553 4.851004321232411e-19 
vn 0.999997615814209 0.002184694167226553 4.851004321232411e-19 
vn 0.999997615814209 0.002184694167226553 4.851004321232411e-19 
vn 0.999997615814209 0.002184694167226553 4.851004321232411e-19 
vn -1.0341130485562108e-13 0.002184694167226553 -0.999997615814209 
vn -1.0341130485562108e-13 0.002184694167226553 -0.999997615814209 
vn -1.0341130485562108e-13 0.002184694167226553 -0.999997615814209 
vn -1.0341130485562108e-13 0.002184694167226553 -0.999997615814209 
vt 0.20247459411621094 0.6041630506515503 
vt 0.2698994278907776 0.6041630506515503 
vt 0.20247459411621094 0.7104265093803406 
vt 0.5857818126678467 0.7104265093803406 
vt 0.5264718532562256 0.6041630506515503 
vt 0.5857818126678467 0.6041630506515503 
vt 0.20247459411621094 0.6041630506515503 
vt 0.20247459411621094 0.7104265093803406 
vt 0.2698994278907776 0.6041630506515503 
vt 0.5857818126678467 0.7104265093803406 
vt 0.5264718532562256 0.6041630506515503 
vt 0.5857818126678467 0.6041630506515503 
vt 0.9880634546279907 0.7107834815979004 
vt 0.010582299903035164 0.7107834815979004 
vt 0.9880634546279907 0.9854262471199036 
vt 0.010582299903035164 0.9854262471199036 
vt 0.010582299903035164 0.010730000212788582 
vt 0.9880634546279907 0.010730000212788582 
vt 0.010582299903035164 0.5000415444374084 
vt 0.9880634546279907 0.5000415444374084 
vt 0.9880634546279907 0.5000415444374084 
vt 0.010582299903035164 0.5000415444374084 
vt 0.9880634546279907 0.6070189476013184 
vt 0.010582299903035164 0.6070189476013184 
vt 0.9880634546279907 0.6070189476013184 
vt 0.010582299903035164 0.6070189476013184 
vt 0.9880634546279907 0.7107834815979004 
vt 0.010582299903035164 0.7107834815979004 
vt 0.23755937814712524 0.010848996229469776 
vt 0.010701635852456093 0.010848996229469776 
vt 0.23755937814712524 0.4999225437641144 
vt 0.010701635852456093 0.4999225437641144 
vt 0.9880634546279907 0.010730000212788582 
vt 0.010582299903035164 0.010730000212788582 
vt 0.9880634546279907 0.5000415444374084 
vt 0.010582299903035164 0.5000415444374084 
vt 0.010582299903035164 0.5000415444374084 
vt 0.9880634546279907 0.5000415444374084 
vt 0.010582299903035164 0.6070189476013184 
vt 0.9880634546279907 0.6070189476013184 
vt 0.010582299903035164 0.6070189476013184 
vt 0.9880634546279907 0.6070189476013184 
vt 0.010582299903035164 0.7107834815979004 
vt 0.9880634546279907 0.7107834815979004 
vt 0.010701635852456093 0.010848996229469776 
vt 0.23755937814712524 0.010848996229469776 
vt 0.010701635852456093 0.4999225437641144 
vt 0.23755937814712524 0.4999225437641144 
s on 
f 1/1/1 2/2/2 3/3/3 
f 2/2/2 2/2/2 3/3/3 
f 3/3/3 2/2/2 4/4/4 
f 2/2/2 5/5/5 4/4/4 
f 4/4/4 5/5/5 6/6/6 
f 5/5/5 6/6/6 6/6/6 
f 6/6/6 6/6/6 7/7/7 
f 6/6/6 7/7/7 7/7/7 
f 7/7/7 7/7/7 8/8/8 
f 7/7/7 9/9/9 8/8/8 
f 8/8/8 9/9/9 10/10/10 
f 9/9/9 11/11/11 10/10/10 
f 10/10/10 11/11/11 12/12/12 
f 11/11/11 12/12/12 12/12/12 
f 12/12/12 12/12/12 13/13/13 
f 12/12/12 13/13/13 13/13/13 
f 13/13/13 13/13/13 14/14/14 
f 13/13/13 15/15/15 14/14/14 
f 14/14/14 15/15/15 16/16/16 
f 15/15/15 16/16/16 16/16/16 
f 16/16/16 16/16/16 17/17/17 
f 16/16/16 17/17/17 17/17/17 
f 17/17/17 17/17/17 18/18/18 
f 17/17/17 19/19/19 18/18/18 
f 18/18/18 19/19/19 20/20/20 
f 19/19/19 20/20/20 20/20/20 
f 20/20/20 20/20/20 21/21/21 
f 20/20/20 21/21/21 21/21/21 
f 21/21/21 21/21/21 22/22/22 
f 21/21/21 23/23/23 22/22/22 
f 22/22/22 23/23/23 24/24/24 
f 23/23/23 24/24/24 24/24/24 
f 24/24/24 24/24/24 25/25/25 
f 24/24/24 25/25/25 25/25/25 
f 25/25/25 25/25/25 26/26/26 
f 25/25/25 27/27/27 26/26/26 
f 26/26/26 27/27/27 28/28/28 
f 27/27/27 28/28/28 28/28/28 
f 28/28/28 28/28/28 29/29/29 
f 28/28/28 29/29/29 29/29/29 
f 29/29/29 29/29/29 30/30/30 
f 29/29/29 31/31/31 30/30/30 
f 30/30/30 31/31/31 32/32/32 
f 31/31/31 32/32/32 32/32/32 
f 32/32/32 32/32/32 33/33/33 
f 32/32/32 33/33/33 33/33/33 
f 33/33/33 33/33/33 34/34/34 
f 33/33/33 35/35/35 34/34/34 
f 34/34/34 35/35/35 36/36/36 
f 35/35/35 36/36/36 36/36/36 
f 36/36/36 36/36/36 37/37/37 
f 36/36/36 37/37/37 37/37/37 
f 37/37/37 37/37/37 38/38/38 
f 37/37/37 39/39/39 38/38/38 
f 38/38/38 39/39/39 40/40/40 
f 39/39/39 40/40/40 40/40/40 
f 40/40/40 40/40/40 41/41/41 
f 40/40/40 41/41/41 41/41/41 
f 41/41/41 41/41/41 42/42/42 
f 41/41/41 43/43/43 42/42/42 
f 42/42/42 43/43/43 44/44/44 
f 43/43/43 44/44/44 44/44/44 
f 44/44/44 44/44/44 45/45/45 
f 44/44/44 45/45/45 45/45/45 
f 45/45/45 45/45/45 46/46/46 
f 45/45/45 47/47/47 46/46/46 
f 46/46/46 47/47/47 48/48/48 

