mtllib model_56.mtl
o model_56
v 27.783313751220703 -1.442979443615558e-13 433.239990234375 
v 27.78331184387207 -1.4662941271326863e-13 440.239990234375 
v 34.7833137512207 -1.442979443615558e-13 433.239990234375 
v 34.7833137512207 -1.4662941271326863e-13 440.239990234375 
vn -1.8530732360928746e-23 1 3.3306698679688577e-16 
vn -1.8530732360928746e-23 1 3.3306698679688577e-16 
vn -1.8530732360928746e-23 1 3.3306698679688577e-16 
vn -1.8530732360928746e-23 1 3.3306698679688577e-16 
vt 1.0000005960464478 0 
vt 1.0000005960464478 1.0000005960464478 
vt 0 0 
vt 0 1.0000005960464478 
s on 
f 1/1/1 2/2/2 3/3/3 
f 2/2/2 4/4/4 3/3/3 

