mtllib model_32.mtl
o model_32
v -22.871408462524414 0.13284645974636078 372.62701416015625 
v -22.938671112060547 0.32839205861091614 372.62701416015625 
v -22.826566696166992 0.16706694662570953 371.130615234375 
v -22.871408462524414 0.32839205861091614 371.130615234375 
v -22.916250228881836 0.32839205861091614 370.19171142578125 
v -22.848987579345703 0.4994944632053375 370.19171142578125 
v -22.826566696166992 0.48482853174209595 371.130615234375 
v -22.714462280273438 0.6021559238433838 370.19171142578125 
v -22.692041397094727 0.5777127146720886 371.130615234375 
v -22.714462280273438 0.6363763809204102 372.62701416015625 
v -22.512676239013672 0.6363763809204102 372.62701416015625 
v -22.535097122192383 0.5777127146720886 371.130615234375 
v -22.355730056762695 0.5190490484237671 372.62701416015625 
v -22.871408462524414 0.5190490484237671 372.62701416015625 
v -22.848987579345703 0.15240101516246796 370.19171142578125 
v -22.535097122192383 0.6021559238433838 370.19171142578125 
v -22.378150939941406 0.4994944632053375 370.19171142578125 
v -22.400571823120117 0.48482853174209595 371.130615234375 
v -22.333309173583984 0.32839205861091614 370.19171142578125 
v -22.355730056762695 0.32839205861091614 371.130615234375 
v -22.378150939941406 0.15240101516246796 370.19171142578125 
v -22.400571823120117 0.16706694662570953 371.130615234375 
v -22.355730056762695 0.13284645974636078 372.62701416015625 
v -22.512676239013672 0.015519100241363049 372.62701416015625 
v -22.535097122192383 0.07418277859687805 371.130615234375 
v -22.714462280273438 0.015519100241363049 372.62701416015625 
v -22.288467407226562 0.32839205861091614 372.62701416015625 
v -22.535097122192383 0.04973958060145378 370.19171142578125 
v -22.714462280273438 0.04973958060145378 370.19171142578125 
v -22.692041397094727 0.07418277859687805 371.130615234375 
v -22.848987579345703 0.15240101516246796 370.19171142578125 
v -22.826566696166992 0.16706694662570953 371.130615234375 
v -22.871408462524414 0.13284645974636078 372.62701416015625 
v -22.916250228881836 0.32839205861091614 370.19171142578125 
v -22.848987579345703 0.4994944632053375 370.19171142578125 
v -22.848987579345703 0.15240101516246796 370.19171142578125 
v -22.714462280273438 0.6021559238433838 370.19171142578125 
v -22.714462280273438 0.04973958060145378 370.19171142578125 
v -22.535097122192383 0.6021559238433838 370.19171142578125 
v -22.535097122192383 0.04973958060145378 370.19171142578125 
v -22.378150939941406 0.4994944632053375 370.19171142578125 
v -22.378150939941406 0.15240101516246796 370.19171142578125 
v -22.333309173583984 0.32839205861091614 370.19171142578125 
v -22.288467407226562 0.32839205861091614 372.62701416015625 
v -22.355730056762695 0.5190490484237671 372.62701416015625 
v -22.355730056762695 0.13284645974636078 372.62701416015625 
v -22.512676239013672 0.6363763809204102 372.62701416015625 
v -22.512676239013672 0.015519100241363049 372.62701416015625 
v -22.714462280273438 0.6363763809204102 372.62701416015625 
v -22.714462280273438 0.015519100241363049 372.62701416015625 
v -22.871408462524414 0.5190490484237671 372.62701416015625 
v -22.871408462524414 0.13284645974636078 372.62701416015625 
v -22.938671112060547 0.32839205861091614 372.62701416015625 
v -23.90276527404785 0.17195558547973633 370.485107421875 
v -23.90276527404785 0.17195558547973633 372.3335876464844 
v -23.85792350769043 0.32839205861091614 370.485107421875 
v -23.85792350769043 0.32839205861091614 372.3335876464844 
v -23.745819091796875 0.435942143201828 370.485107421875 
v -23.745819091796875 0.435942143201828 372.3335876464844 
v -23.61129379272461 0.47993990778923035 370.485107421875 
v -23.61129379272461 0.47993990778923035 372.3335876464844 
v -23.61129379272461 0.47993990778923035 372.3335876464844 
v -23.61129379272461 0.17195558547973633 372.3335876464844 
v -23.61129379272461 0.47993990778923035 370.485107421875 
v -23.61129379272461 0.17195558547973633 370.485107421875 
v -23.90276527404785 0.17195558547973633 372.3335876464844 
v -23.90276527404785 0.17195558547973633 370.485107421875 
v -23.61129379272461 0.17195558547973633 372.3335876464844 
v -23.61129379272461 0.17195558547973633 370.485107421875 
v -23.61129379272461 0.47993990778923035 370.485107421875 
v -23.61129379272461 0.17195558547973633 370.485107421875 
v -23.745819091796875 0.435942143201828 370.485107421875 
v -23.85792350769043 0.32839205861091614 370.485107421875 
v -23.90276527404785 0.17195558547973633 370.485107421875 
v -23.90276527404785 0.17195558547973633 372.3335876464844 
v -23.61129379272461 0.17195558547973633 372.3335876464844 
v -23.85792350769043 0.32839205861091614 372.3335876464844 
v -23.745819091796875 0.435942143201828 372.3335876464844 
v -23.61129379272461 0.47993990778923035 372.3335876464844 
v -25.135910034179688 0.18173286318778992 370.60247802734375 
v -25.135910034179688 0.18173286318778992 372.2455749511719 
v -25.068647384643555 0.3577238917350769 370.60247802734375 
v -25.068647384643555 0.3577238917350769 372.2455749511719 
v -24.93412208557129 0.47016263008117676 370.60247802734375 
v -24.93412208557129 0.47016263008117676 372.2455749511719 
v -24.73233413696289 0.47016263008117676 370.60247802734375 
v -24.73233413696289 0.47016263008117676 372.2455749511719 
v -24.597810745239258 0.3577238917350769 370.60247802734375 
v -24.597810745239258 0.3577238917350769 372.2455749511719 
v -24.530548095703125 0.18173286318778992 370.60247802734375 
v -24.530548095703125 0.18173286318778992 372.2455749511719 
v -25.135910034179688 0.18173286318778992 372.2455749511719 
v -25.135910034179688 0.18173286318778992 370.60247802734375 
v -24.530548095703125 0.18173286318778992 372.2455749511719 
v -24.530548095703125 0.18173286318778992 370.60247802734375 
v -25.135910034179688 0.18173286318778992 370.60247802734375 
v -25.068647384643555 0.3577238917350769 370.60247802734375 
v -24.530548095703125 0.18173286318778992 370.60247802734375 
v -24.597810745239258 0.3577238917350769 370.60247802734375 
v -24.73233413696289 0.47016263008117676 370.60247802734375 
v -24.93412208557129 0.47016263008117676 370.60247802734375 
v -24.530548095703125 0.18173286318778992 372.2455749511719 
v -24.597810745239258 0.3577238917350769 372.2455749511719 
v -25.135910034179688 0.18173286318778992 372.2455749511719 
v -25.068647384643555 0.3577238917350769 372.2455749511719 
v -24.93412208557129 0.47016263008117676 372.2455749511719 
v -24.73233413696289 0.47016263008117676 372.2455749511719 
vn -0.8089072704315186 -0.5867242813110352 -0.037731438875198364 
vn -0.9992848038673401 -0.002184694167226553 -0.03775046393275261 
vn -0.809751570224762 -0.5867242813110352 -0.007548911962658167 
vn -0.9999691247940063 -0.002184694167226553 -0.007551815826445818 
vn -0.9995414018630981 -0.002184694167226553 0.0302029550075531 
vn -0.8093570470809937 0.5867242813110352 0.026377765461802483 
vn -0.8097780346870422 0.5867242813110352 -0.003768905298784375 
vn -0.30831778049468994 0.9509214162826538 0.026241710409522057 
vn -0.3094097673892975 0.9509214162826538 -0.0037532320711761713 
vn -0.3066822290420532 0.9509214162826538 -0.04116417095065117 
vn 0.3071589767932892 0.9509214162826538 -0.03744127228856087 
vn 0.3093414604663849 0.9509214162826538 -0.007505911868065596 
vn 0.8089098930358887 0.5867242813110352 -0.037675581872463226 
vn -0.8087257742881775 0.5867242813110352 -0.041439998894929886 
vn -0.8092238306999207 -0.5867242813110352 0.030189087614417076 
vn 0.3079768121242523 0.9509214162826538 0.029979491606354713 
vn 0.8092254996299744 0.5867242813110352 0.030144384130835533 
vn 0.8097516894340515 0.5867242813110352 -0.007537728641182184 
vn 0.9995414018630981 0.002184694167226553 0.0302029550075531 
vn 0.9999691247940063 0.002184694167226553 -0.007551815826445818 
vn 0.8092238306999207 -0.5867242813110352 0.030189087614417076 
vn 0.809751570224762 -0.5867242813110352 -0.007548911962658167 
vn 0.8089072704315186 -0.5867242813110352 -0.037731438875198364 
vn 0.30712348222732544 -0.9509214162826538 -0.037731196731328964 
vn 0.30934005975723267 -0.9509214162826538 -0.007564311847090721 
vn -0.30663934350013733 -0.9509214162826538 -0.0414825901389122 
vn 0.9992848038673401 0.002184694167226553 -0.03775046393275261 
vn 0.3079540729522705 -0.9509214162826538 0.030212054029107094 
vn -0.3083003759384155 -0.9509214162826538 0.026445429772138596 
vn -0.30940940976142883 -0.9509214162826538 -0.0037824385799467564 
vn -0.8092238306999207 -0.5867242813110352 0.030189087614417076 
vn -0.809751570224762 -0.5867242813110352 -0.007548911962658167 
vn -0.8089072704315186 -0.5867242813110352 -0.037731438875198364 
vn -1.0341130485562108e-13 0.002184694167226553 -0.999997615814209 
vn -1.0341130485562108e-13 0.002184694167226553 -0.999997615814209 
vn -1.0341130485562108e-13 0.002184694167226553 -0.999997615814209 
vn -1.0341130485562108e-13 0.002184694167226553 -0.999997615814209 
vn -1.0341130485562108e-13 0.002184694167226553 -0.999997615814209 
vn -1.0341130485562108e-13 0.002184694167226553 -0.999997615814209 
vn -1.0341130485562108e-13 0.002184694167226553 -0.999997615814209 
vn -1.0341130485562108e-13 0.002184694167226553 -0.999997615814209 
vn -1.0341130485562108e-13 0.002184694167226553 -0.999997615814209 
vn -1.0341130485562108e-13 0.002184694167226553 -0.999997615814209 
vn 3.097898456858039e-13 0.002184694167226553 0.999997615814209 
vn 3.097898456858039e-13 0.002184694167226553 0.999997615814209 
vn 3.097898456858039e-13 0.002184694167226553 0.999997615814209 
vn 3.097898456858039e-13 0.002184694167226553 0.999997615814209 
vn 3.097898456858039e-13 0.002184694167226553 0.999997615814209 
vn 3.097898456858039e-13 0.002184694167226553 0.999997615814209 
vn 3.097898456858039e-13 0.002184694167226553 0.999997615814209 
vn 3.097898456858039e-13 0.002184694167226553 0.999997615814209 
vn 3.097898456858039e-13 0.002184694167226553 0.999997615814209 
vn 3.097898456858039e-13 0.002184694167226553 0.999997615814209 
vn -0.9675019979476929 0.25283506512641907 -0.003775792196393013 
vn -0.9675019979476929 0.25283506512641907 -0.003775792196393013 
vn -0.8689236044883728 0.4949462115764618 1.7943750597795155e-13 
vn -0.8689236044883728 0.4949462115764618 1.7943750597795155e-13 
vn -0.5006305575370789 0.865661084651947 1.0373418026258727e-13 
vn -0.5006305575370789 0.865661084651947 1.0373418026258727e-13 
vn -0.259143590927124 0.9658315181732178 -0.0037519836332648993 
vn -0.259143590927124 0.9658315181732178 -0.0037519836332648993 
vn 0.999997615814209 0.002184694167226553 4.851004321232411e-19 
vn 0.999997615814209 0.002184694167226553 4.851004321232411e-19 
vn 0.999997615814209 0.002184694167226553 4.851004321232411e-19 
vn 0.999997615814209 0.002184694167226553 4.851004321232411e-19 
vn 2.0682311115474694e-13 -1 -2.2204500197172533e-16 
vn 2.0682311115474694e-13 -1 -2.2204500197172533e-16 
vn 2.0682311115474694e-13 -1 -2.2204500197172533e-16 
vn 2.0682311115474694e-13 -1 -2.2204500197172533e-16 
vn -1.0341130485562108e-13 0.002184694167226553 -0.999997615814209 
vn -1.0341130485562108e-13 0.002184694167226553 -0.999997615814209 
vn -1.0341130485562108e-13 0.002184694167226553 -0.999997615814209 
vn -1.0341130485562108e-13 0.002184694167226553 -0.999997615814209 
vn -1.0341130485562108e-13 0.002184694167226553 -0.999997615814209 
vn 3.097898456858039e-13 0.002184694167226553 0.999997615814209 
vn 3.097898456858039e-13 0.002184694167226553 0.999997615814209 
vn 3.097898456858039e-13 0.002184694167226553 0.999997615814209 
vn 3.097898456858039e-13 0.002184694167226553 0.999997615814209 
vn 3.097898456858039e-13 0.002184694167226553 0.999997615814209 
vn -0.95159512758255 0.30735430121421814 1.9688010987131688e-13 
vn -0.95159512758255 0.30735430121421814 1.9688010987131688e-13 
vn -0.8097780346870422 0.5867242813110352 -0.003768905298784375 
vn -0.8097780346870422 0.5867242813110352 -0.003768905298784375 
vn -0.3094097673892975 0.9509214162826538 -0.0037532320711761713 
vn -0.3094097673892975 0.9509214162826538 -0.0037532320711761713 
vn 0.3094325065612793 0.9509214162826538 2.1114734077014752e-16 
vn 0.3094325065612793 0.9509214162826538 2.1114734077014752e-16 
vn 0.8097867965698242 0.5867242813110352 1.3027919947164815e-16 
vn 0.8097867965698242 0.5867242813110352 1.3027919947164815e-16 
vn 0.95159512758255 0.30735430121421814 6.824648349912834e-17 
vn 0.95159512758255 0.30735430121421814 6.824648349912834e-17 
vn -2.0682311115474694e-13 -1 -2.2204500197172533e-16 
vn -2.0682311115474694e-13 -1 -2.2204500197172533e-16 
vn -2.0682311115474694e-13 -1 -2.2204500197172533e-16 
vn -2.0682311115474694e-13 -1 -2.2204500197172533e-16 
vn -1.0341130485562108e-13 0.002184694167226553 -0.999997615814209 
vn -1.0341130485562108e-13 0.002184694167226553 -0.999997615814209 
vn -1.0341130485562108e-13 0.002184694167226553 -0.999997615814209 
vn -1.0341130485562108e-13 0.002184694167226553 -0.999997615814209 
vn -1.0341130485562108e-13 0.002184694167226553 -0.999997615814209 
vn -1.0341130485562108e-13 0.002184694167226553 -0.999997615814209 
vn 3.097898456858039e-13 0.002184694167226553 0.999997615814209 
vn 3.097898456858039e-13 0.002184694167226553 0.999997615814209 
vn 3.097898456858039e-13 0.002184694167226553 0.999997615814209 
vn 3.097898456858039e-13 0.002184694167226553 0.999997615814209 
vn 3.097898456858039e-13 0.002184694167226553 0.999997615814209 
vn 3.097898456858039e-13 0.002184694167226553 0.999997615814209 
vt 0.47527527809143066 0.013957272283732891 
vt 0.5258758068084717 0.013957272283732891 
vt 0.47527527809143066 0.37453213334083557 
vt 0.5258758068084717 0.37453213334083557 
vt 0.5258758068084717 0.5988154411315918 
vt 0.5764763355255127 0.5988154411315918 
vt 0.5764763355255127 0.37453213334083557 
vt 0.6243255138397217 0.5988154411315918 
vt 0.6243255138397217 0.37453213334083557 
vt 0.6243255138397217 0.013957272283732891 
vt 0.6749260425567627 0.013957272283732891 
vt 0.6749260425567627 0.37453213334083557 
vt 0.7264835834503174 0.013957272283732891 
vt 0.5764763355255127 0.013957272283732891 
vt 0.47527527809143066 0.5988154411315918 
vt 0.6749260425567627 0.5988154411315918 
vt 0.7264835834503174 0.5988154411315918 
vt 0.7264835834503174 0.37453213334083557 
vt 0.7781606912612915 0.5988154411315918 
vt 0.7781606912612915 0.37453213334083557 
vt 0.8298378586769104 0.5988154411315918 
vt 0.8298378586769104 0.37453213334083557 
vt 0.8298378586769104 0.013957272283732891 
vt 0.8817542195320129 0.013957272283732891 
vt 0.8817542195320129 0.37453213334083557 
vt 0.9339098930358887 0.013957272283732891 
vt 0.7781606912612915 0.013957272283732891 
vt 0.8817542195320129 0.5988154411315918 
vt 0.9339098930358887 0.5988154411315918 
vt 0.9339098930358887 0.37453213334083557 
vt 0.985108494758606 0.5988154411315918 
vt 0.985108494758606 0.37453213334083557 
vt 0.985108494758606 0.013957272283732891 
vt 0.8281631469726562 0.9683568477630615 
vt 0.7267228364944458 0.9361968040466309 
vt 0.9273306131362915 0.937990128993988 
vt 0.6664328575134277 0.8503570556640625 
vt 0.9892953038215637 0.8531067967414856 
vt 0.6671505570411682 0.7467037439346313 
vt 0.9892953038215637 0.7475405931472778 
vt 0.7287564277648926 0.6624181866645813 
vt 0.9273306131362915 0.6621790528297424 
vt 0.8281631469726562 0.6300190091133118 
vt 0.8281631469726562 0.6300190091133118 
vt 0.9273306131362915 0.662059485912323 
vt 0.7287564277648926 0.6624181866645813 
vt 0.9892953038215637 0.7471819519996643 
vt 0.6671505570411682 0.7467037439346313 
vt 0.9892953038215637 0.8523894548416138 
vt 0.6664328575134277 0.8503570556640625 
vt 0.9273306131362915 0.937990128993988 
vt 0.7267228364944458 0.9361968040466309 
vt 0.8281631469726562 0.9683568477630615 
vt 0.6518388390541077 0.9910721182823181 
vt 0.00970256607979536 0.9910721182823181 
vt 0.6518388390541077 0.9355990290641785 
vt 0.00970256607979536 0.9355990290641785 
vt 0.6518388390541077 0.8816801905632019 
vt 0.00970256607979536 0.8816801905632019 
vt 0.6518388390541077 0.8277613520622253 
vt 0.00970256607979536 0.8277613520622253 
vt 0.00970256607979536 0.8277613520622253 
vt 0.00970256607979536 0.7219560742378235 
vt 0.6518388390541077 0.8277613520622253 
vt 0.6518388390541077 0.7219560742378235 
vt 0.00970256607979536 0.6178245544433594 
vt 0.6518388390541077 0.6178245544433594 
vt 0.00970256607979536 0.7219560742378235 
vt 0.6518388390541077 0.7219560742378235 
vt 0.6690645217895508 0.7694190144538879 
vt 0.829598605632782 0.7987097501754761 
vt 0.6664328575134277 0.8503570556640625 
vt 0.7267228364944458 0.9361968040466309 
vt 0.8059132695198059 0.96178138256073 
vt 0.8059132695198059 0.96178138256073 
vt 0.829598605632782 0.7987097501754761 
vt 0.7267228364944458 0.9361968040466309 
vt 0.6664328575134277 0.8503570556640625 
vt 0.6688252687454224 0.7694190144538879 
vt 0.009463319554924965 0.5991740822792053 
vt 0.011377288028597832 0.011805299669504166 
vt 0.06389178335666656 0.5991740822792053 
vt 0.06580575555562973 0.011924853548407555 
vt 0.11832024902105331 0.5991740822792053 
vt 0.12023422122001648 0.011924853548407555 
vt 0.17274871468544006 0.5991740822792053 
vt 0.17466267943382263 0.012044408358633518 
vt 0.22717717289924622 0.5991740822792053 
vt 0.22897152602672577 0.012163962237536907 
vt 0.28160563111305237 0.5991740822792053 
vt 0.2833999991416931 0.012163962237536907 
vt 0.4586476981639862 0.012403069995343685 
vt 0.4586476981639862 0.5991740822792053 
vt 0.2833999991416931 0.012163962237536907 
vt 0.28160563111305237 0.5991740822792053 
vt 0.8281631469726562 0.9683568477630615 
vt 0.7267228364944458 0.9361968040466309 
vt 0.8281631469726562 0.6300190091133118 
vt 0.7287564277648926 0.6624181866645813 
vt 0.6671505570411682 0.7467037439346313 
vt 0.6664328575134277 0.8503570556640625 
vt 0.8281631469726562 0.6300190091133118 
vt 0.7287564277648926 0.6624181866645813 
vt 0.8281631469726562 0.9683568477630615 
vt 0.7267228364944458 0.9361968040466309 
vt 0.6664328575134277 0.8503570556640625 
vt 0.6671505570411682 0.7467037439346313 
s on 
f 1/1/1 2/2/2 3/3/3 
f 2/2/2 4/4/4 3/3/3 
f 3/3/3 4/4/4 5/5/5 
f 4/4/4 4/4/4 5/5/5 
f 5/5/5 4/4/4 6/6/6 
f 4/4/4 7/7/7 6/6/6 
f 6/6/6 7/7/7 8/8/8 
f 7/7/7 7/7/7 8/8/8 
f 8/8/8 7/7/7 9/9/9 
f 7/7/7 10/10/10 9/9/9 
f 9/9/9 10/10/10 9/9/9 
f 10/10/10 11/11/11 9/9/9 
f 9/9/9 11/11/11 12/12/12 
f 11/11/11 13/13/13 12/12/12 
f 12/12/12 13/13/13 13/13/13 
f 13/13/13 10/10/10 13/13/13 
f 13/13/13 10/10/10 10/10/10 
f 10/10/10 7/7/7 10/10/10 
f 10/10/10 7/7/7 14/14/14 
f 7/7/7 4/4/4 14/14/14 
f 14/14/14 4/4/4 2/2/2 
f 4/4/4 2/2/2 2/2/2 
f 2/2/2 2/2/2 5/5/5 
f 2/2/2 5/5/5 5/5/5 
f 5/5/5 5/5/5 3/3/3 
f 5/5/5 15/15/15 3/3/3 
f 3/3/3 15/15/15 15/15/15 
f 15/15/15 8/8/8 15/15/15 
f 15/15/15 8/8/8 8/8/8 
f 8/8/8 9/9/9 8/8/8 
f 8/8/8 9/9/9 16/16/16 
f 9/9/9 12/12/12 16/16/16 
f 16/16/16 12/12/12 17/17/17 
f 12/12/12 18/18/18 17/17/17 
f 17/17/17 18/18/18 19/19/19 
f 18/18/18 20/20/20 19/19/19 
f 19/19/19 20/20/20 21/21/21 
f 20/20/20 20/20/20 21/21/21 
f 21/21/21 20/20/20 22/22/22 
f 20/20/20 23/23/23 22/22/22 
f 22/22/22 23/23/23 22/22/22 
f 23/23/23 24/24/24 22/22/22 
f 22/22/22 24/24/24 25/25/25 
f 24/24/24 26/26/26 25/25/25 
f 25/25/25 26/26/26 26/26/26 
f 26/26/26 12/12/12 26/26/26 
f 26/26/26 12/12/12 12/12/12 
f 12/12/12 13/13/13 12/12/12 
f 12/12/12 13/13/13 18/18/18 
f 13/13/13 27/27/27 18/18/18 
f 18/18/18 27/27/27 20/20/20 
f 27/27/27 23/23/23 20/20/20 
f 20/20/20 23/23/23 23/23/23 
f 23/23/23 21/21/21 23/23/23 
f 23/23/23 21/21/21 21/21/21 
f 21/21/21 22/22/22 21/21/21 
f 21/21/21 22/22/22 28/28/28 
f 22/22/22 25/25/25 28/28/28 
f 28/28/28 25/25/25 29/29/29 
f 25/25/25 30/30/30 29/29/29 
f 29/29/29 30/30/30 31/31/31 
f 30/30/30 30/30/30 31/31/31 
f 31/31/31 30/30/30 32/32/32 
f 30/30/30 30/30/30 32/32/32 
f 32/32/32 30/30/30 33/33/33 
f 30/30/30 30/30/30 33/33/33 
f 33/33/33 30/30/30 26/26/26 
f 30/30/30 25/25/25 26/26/26 
f 26/26/26 25/25/25 25/25/25 
f 25/25/25 34/34/34 25/25/25 
f 25/25/25 34/34/34 34/34/34 
f 34/34/34 35/35/35 34/34/34 
f 34/34/34 35/35/35 36/36/36 
f 35/35/35 37/37/37 36/36/36 
f 36/36/36 37/37/37 38/38/38 
f 37/37/37 39/39/39 38/38/38 
f 38/38/38 39/39/39 40/40/40 
f 39/39/39 41/41/41 40/40/40 
f 40/40/40 41/41/41 42/42/42 
f 41/41/41 43/43/43 42/42/42 
f 42/42/42 43/43/43 43/43/43 
f 43/43/43 44/44/44 43/43/43 
f 43/43/43 44/44/44 44/44/44 
f 44/44/44 45/45/45 44/44/44 
f 44/44/44 45/45/45 46/46/46 
f 45/45/45 47/47/47 46/46/46 
f 46/46/46 47/47/47 48/48/48 
f 47/47/47 49/49/49 48/48/48 
f 48/48/48 49/49/49 50/50/50 
f 49/49/49 51/51/51 50/50/50 
f 50/50/50 51/51/51 52/52/52 
f 51/51/51 53/53/53 52/52/52 
f 52/52/52 53/53/53 53/53/53 
f 53/53/53 54/54/54 53/53/53 
f 53/53/53 54/54/54 54/54/54 
f 54/54/54 55/55/55 54/54/54 
f 54/54/54 55/55/55 56/56/56 
f 55/55/55 57/57/57 56/56/56 
f 56/56/56 57/57/57 58/58/58 
f 57/57/57 59/59/59 58/58/58 
f 58/58/58 59/59/59 60/60/60 
f 59/59/59 61/61/61 60/60/60 
f 60/60/60 61/61/61 61/61/61 
f 61/61/61 62/62/62 61/61/61 
f 61/61/61 62/62/62 62/62/62 
f 62/62/62 63/63/63 62/62/62 
f 62/62/62 63/63/63 64/64/64 
f 63/63/63 65/65/65 64/64/64 
f 64/64/64 65/65/65 65/65/65 
f 65/65/65 66/66/66 65/65/65 
f 65/65/65 66/66/66 66/66/66 
f 66/66/66 67/67/67 66/66/66 
f 66/66/66 67/67/67 68/68/68 
f 67/67/67 69/69/69 68/68/68 
f 68/68/68 69/69/69 69/69/69 
f 69/69/69 70/70/70 69/69/69 
f 69/69/69 70/70/70 70/70/70 
f 70/70/70 71/71/71 70/70/70 
f 70/70/70 71/71/71 72/72/72 
f 71/71/71 71/71/71 72/72/72 
f 72/72/72 71/71/71 73/73/73 
f 71/71/71 74/74/74 73/73/73 
f 73/73/73 74/74/74 74/74/74 
f 74/74/74 75/75/75 74/74/74 
f 74/74/74 75/75/75 75/75/75 
f 75/75/75 76/76/76 75/75/75 
f 75/75/75 76/76/76 77/77/77 
f 76/76/76 76/76/76 77/77/77 
f 77/77/77 76/76/76 78/78/78 
f 76/76/76 79/79/79 78/78/78 
f 78/78/78 79/79/79 79/79/79 
f 79/79/79 80/80/80 79/79/79 
f 79/79/79 80/80/80 80/80/80 
f 80/80/80 81/81/81 80/80/80 
f 80/80/80 81/81/81 82/82/82 
f 81/81/81 83/83/83 82/82/82 
f 82/82/82 83/83/83 84/84/84 
f 83/83/83 85/85/85 84/84/84 
f 84/84/84 85/85/85 86/86/86 
f 85/85/85 87/87/87 86/86/86 
f 86/86/86 87/87/87 88/88/88 
f 87/87/87 89/89/89 88/88/88 
f 88/88/88 89/89/89 90/90/90 
f 89/89/89 91/91/91 90/90/90 
f 90/90/90 91/91/91 91/91/91 
f 91/91/91 92/92/92 91/91/91 
f 91/91/91 92/92/92 92/92/92 
f 92/92/92 93/93/93 92/92/92 
f 92/92/92 93/93/93 94/94/94 
f 93/93/93 95/95/95 94/94/94 
f 94/94/94 95/95/95 95/95/95 
f 95/95/95 96/96/96 95/95/95 
f 95/95/95 96/96/96 96/96/96 
f 96/96/96 97/97/97 96/96/96 
f 96/96/96 97/97/97 98/98/98 
f 97/97/97 97/97/97 98/98/98 
f 98/98/98 97/97/97 99/99/99 
f 97/97/97 97/97/97 99/99/99 
f 99/99/99 97/97/97 100/100/100 
f 97/97/97 101/101/101 100/100/100 
f 100/100/100 101/101/101 101/101/101 
f 101/101/101 102/102/102 101/101/101 
f 101/101/101 102/102/102 102/102/102 
f 102/102/102 103/103/103 102/102/102 
f 102/102/102 103/103/103 104/104/104 
f 103/103/103 103/103/103 104/104/104 
f 104/104/104 103/103/103 105/105/105 
f 103/103/103 103/103/103 105/105/105 
f 105/105/105 103/103/103 106/106/106 
f 103/103/103 107/107/107 106/106/106 

