mtllib model_51.mtl
o model_51
v -17.3485107421875 -9.775309088664447e-14 440.239990234375 
v -17.3485107421875 -9.619877187590567e-14 433.239990234375 
v -24.348508834838867 -9.775309088664447e-14 440.239990234375 
v -24.348508834838867 -9.619877187590567e-14 433.239990234375 
vn 0 1 2.2204500197172533e-16 
vn 0 1 2.2204500197172533e-16 
vn 0 1 2.2204500197172533e-16 
vn 0 1 2.2204500197172533e-16 
vt 1.0000005960464478 0 
vt 1.0000005960464478 1.0000005960464478 
vt 0 0 
vt 0 1.0000005960464478 
s on 
f 1/1/1 2/2/2 3/3/3 
f 2/2/2 4/4/4 3/3/3 

