mtllib model_35.mtl
o model_35
v -35.547122955322266 0.18060849606990814 361.1527404785156 
v -35.79972839355469 0.2364671528339386 361.12420654296875 
v -35.82779312133789 0.008735699579119682 361.3523864746094 
v -36.05233383178711 0.12474983930587769 361.0671691894531 
v -36.038299560546875 0.20209260284900665 360.781982421875 
v -35.757625579833984 0.3352940082550049 360.8390197753906 
v -35.926029205322266 0.2063894271850586 360.5538024902344 
v -35.70149230957031 0.32240355014801025 360.61083984375 
v -35.631324768066406 0.16342121362686157 360.3541564941406 
v -35.462921142578125 0.26224806904792786 360.66790771484375 
v -35.44888687133789 0.26224806904792786 360.89605712890625 
v -35.60325622558594 0.18060849606990814 361.5520324707031 
v -35.60325622558594 0.2364671528339386 361.3238525390625 
v -35.82779312133789 0.008735699579119682 361.3238525390625 
v -35.575191497802734 0.12474983930587769 361.095703125 
v -35.30855178833008 0.20209260284900665 361.0671691894531 
v -35.33662033081055 0.3352940082550049 361.3238525390625 
v -35.055946350097656 0.2063894271850586 361.12420654296875 
v -35.084014892578125 0.32240355014801025 361.3238525390625 
v -34.803340911865234 0.16342121362686157 361.3523864746094 
v -35.084014892578125 0.26224806904792786 361.52349853515625 
v -35.33662033081055 0.26224806904792786 361.5805358886719 
v -35.9400634765625 0.2364671528339386 361.5805358886719 
v -35.757625579833984 0.3095130920410156 361.409423828125 
v -35.81376266479492 0.043110258877277374 361.3238525390625 
v -35.547122955322266 0.24935762584209442 361.3238525390625 
v -35.40678787231445 0.4083399474620819 361.4949951171875 
v -35.659393310546875 0.48138588666915894 361.5805358886719 
v -35.350650787353516 0.48568272590637207 361.69464111328125 
v -35.5611572265625 0.5501350164413452 361.7801818847656 
v -35.40678787231445 0.5071668028831482 362.00836181640625 
v -35.71552658081055 0.4770890772342682 361.92279052734375 
v -35.869895935058594 0.3868558704853058 361.7801818847656 
v -36.13653564453125 0.18060849606990814 361.409423828125 
v -35.89796447753906 0.2364671528339386 361.52349853515625 
v -35.81376266479492 0.008735699579119682 361.3238525390625 
v -35.70149230957031 0.12474983930587769 361.69464111328125 
v -35.79972839355469 0.20209260284900665 361.9513244628906 
v -36.038299560546875 0.3352940082550049 361.7801818847656 
v -35.98216247558594 0.2063894271850586 362.1224365234375 
v -36.17863464355469 0.32240355014801025 361.9798278808594 
v -36.333003997802734 0.16342121362686157 362.2080078125 
v -36.389137268066406 0.26224806904792786 361.8657531738281 
v -36.304935455322266 0.26224806904792786 361.60906982421875 
v -35.91199493408203 0.20209260284900665 361.12420654296875 
v -35.89796447753906 0.24506080150604248 361.3523864746094 
v -35.81376266479492 0.0044388798996806145 361.3523864746094 
v -35.954097747802734 0.1763116866350174 361.5520324707031 
v -36.13653564453125 0.32240355014801025 361.5805358886719 
v -36.06636428833008 0.4083399474620819 361.3523864746094 
v -36.3189697265625 0.3997463285923004 361.52349853515625 
v -36.26283645629883 0.4770890772342682 361.3238525390625 
v -36.51544189453125 0.4470113515853882 361.29534912109375 
v -36.27687072753906 0.4298240542411804 361.12420654296875 
v -36.09443283081055 0.3481844663619995 361.095703125 
v -35.91199493408203 0.1462339460849762 361.095703125 
v -35.99619674682617 0.19349895417690277 361.29534912109375 
v -35.81376266479492 0.008735699579119682 361.3523864746094 
v -36.08039855957031 0.10326573997735977 361.4949951171875 
v -36.2909049987793 0.16342121362686157 361.4379577636719 
v -36.19266891479492 0.27084171772003174 361.20977783203125 
v -36.45930480957031 0.1677180379629135 361.3238525390625 
v -36.37510681152344 0.26224806904792786 361.1527404785156 
v -36.585609436035156 0.13334347307682037 361.0386657714844 
v -36.3189697265625 0.21068623661994934 360.9530944824219 
v -36.10846710205078 0.21068623661994934 360.98162841796875 
vn 0.10467342287302017 0.8612531423568726 0.4972790777683258 
vn -0.20184819400310516 0.8453097939491272 0.4946803152561188 
vn -0.22252778708934784 0.6938546895980835 0.6848700642585754 
vn -0.4700692892074585 0.7980946898460388 0.3769347071647644 
vn -0.4294293522834778 0.9023185968399048 0.037570200860500336 
vn -0.12382578104734421 0.9855159521102905 0.11586840450763702 
vn -0.35087743401527405 0.8846737742424011 -0.3069809377193451 
vn -0.04856365546584129 0.9587059020996094 -0.2802223563194275 
vn 0.009409460239112377 0.8634653687477112 -0.5043203830718994 
vn 0.26150986552238464 0.9522643685340881 -0.1574966162443161 
vn 0.20440803468227386 0.962351381778717 0.17915679514408112 
vn -0.4817027151584625 0.8476362228393555 0.2224305272102356 
vn -0.5190272331237793 0.8453097939491272 -0.1267360895872116 
vn -0.7124784588813782 0.6907016038894653 -0.12371635437011719 
vn -0.45134249329566956 0.7682244777679443 -0.454005628824234 
vn -0.10276639461517334 0.87427818775177 -0.47442248463630676 
vn -0.1348877251148224 0.9839963912963867 -0.11643195897340775 
vn 0.24765336513519287 0.8545181155204773 -0.4565814733505249 
vn 0.2623901665210724 0.9587059020996094 -0.10970140248537064 
vn 0.49877554178237915 0.8612531423568726 -0.09729310125112534 
vn 0.20759576559066772 0.9410139322280884 0.26720184087753296 
vn -0.13942888379096985 0.9522643685340881 0.271573543548584 
vn -0.6537543535232544 0.6007870435714722 -0.46006542444229126 
vn -0.43190476298332214 0.6007870435714722 -0.6726909875869751 
vn -0.4937123954296112 0.3852050006389618 -0.7796570658683777 
vn -0.15926121175289154 0.6112139225006104 -0.7752763628959656 
vn 0.003765546716749668 0.8358433246612549 -0.5489551424980164 
vn -0.28267043828964233 0.872148871421814 -0.399316668510437 
vn 0.18001607060432434 0.9481810927391052 -0.26181459426879883 
vn -0.07441036403179169 0.9940398335456848 -0.07967404276132584 
vn 0.05969132110476494 0.9896226525306702 0.13070575892925262 
vn -0.36618074774742126 0.9286137819290161 0.05990088731050491 
vn -0.547351062297821 0.8110666871070862 -0.2063436508178711 
vn 0.06757445633411407 0.8612531423568726 -0.5036632418632507 
vn 0.3601032793521881 0.8453097939491272 -0.39468586444854736 
vn 0.4472978413105011 0.6938546895980835 -0.5643494129180908 
vn 0.5709083676338196 0.7980946898460388 -0.19263583421707153 
vn 0.4163813591003418 0.9023185968399048 0.11156905442476273 
vn 0.1563127040863037 0.9855159521102905 -0.06576207280158997 
vn 0.22545599937438965 0.8846737742424011 0.4080709218978882 
vn -0.04856365546584129 0.9587059020996094 0.2802223563194275 
vn -0.1821100115776062 0.8634653687477112 0.4703865647315979 
vn -0.2986036539077759 0.9522643685340881 0.06347016245126724 
vn -0.13153764605522156 0.962351381778717 -0.2378605753183365 
vn 0.7781623601913452 0.5972883701324463 -0.19419044256210327 
vn 0.814638614654541 0.5688942670822144 0.11279716342687607 
vn 0.9297701120376587 0.3527185618877411 0.10543806105852127 
vn 0.7317600250244141 0.5580654144287109 0.3912675380706787 
vn 0.45860108733177185 0.790128231048584 0.4066723883152008 
vn 0.5139966011047363 0.8522403836250305 0.0974360927939415 
vn 0.1329890340566635 0.913308322429657 0.3849438726902008 
vn 0.13566309213638306 0.9876541495323181 0.07832512259483337 
vn -0.11431459337472916 0.9919826984405518 0.05387437716126442 
vn 0.19802618026733398 0.949560284614563 -0.2431478351354599 
vn 0.5173972249031067 0.8211658596992493 -0.2408045083284378 
vn 0.5079529881477356 0.8612531423568726 -0.015058950521051884 
vn 0.45166826248168945 0.8453097939491272 0.28538936376571655 
vn 0.6346398591995239 0.6938546895980835 0.340290904045105 
vn 0.2925163507461548 0.7980946898460388 0.526762843132019 
vn -0.037570200860500336 0.9023185968399048 0.4294293522834778 
vn 0.08908610045909882 0.9855159521102905 0.1442982256412506 
vn -0.3606094717979431 0.8846737742424011 0.2954879105091095 
vn -0.2843993604183197 0.9587059020996094 5.903323619868561e-14 
vn -0.49420472979545593 0.8634653687477112 -0.10094187408685684 
vn -0.1120293140411377 0.9522643685340881 -0.28397542238235474 
vn 0.2140076905488968 0.962351381778717 -0.16757242381572723 
vt 0.9542877078056335 0.48270925879478455 
vt 0.7219259738922119 0.28690651059150696 
vt 0.9847497940063477 0.024315599352121353 
vt 0.5196720361709595 0.059405699372291565 
vt 0.22792106866836548 0.27696430683135986 
vt 0.47941017150878906 0.5268058180809021 
vt 0.05860868841409683 0.5430642366409302 
vt 0.27314189076423645 0.7300944924354553 
vt 0.017638400197029114 0.9823923110961914 
vt 0.46547791361808777 0.9393484592437744 
vt 0.7353859543800354 0.7711498737335205 
vt 0.9542877078056335 0.48270925879478455 
vt 0.7219259738922119 0.28690651059150696 
vt 0.9847497940063477 0.024315599352121353 
vt 0.5196720361709595 0.059405699372291565 
vt 0.22792106866836548 0.27696430683135986 
vt 0.47941017150878906 0.5268058180809021 
vt 0.05860868841409683 0.5430642366409302 
vt 0.27314189076423645 0.7300944924354553 
vt 0.017638400197029114 0.9823923110961914 
vt 0.46547791361808777 0.9393484592437744 
vt 0.7353859543800354 0.7711498737335205 
vt 0.9542877078056335 0.48270925879478455 
vt 0.7219259738922119 0.28690651059150696 
vt 0.9847497940063477 0.024315599352121353 
vt 0.5196720361709595 0.059405699372291565 
vt 0.22792106866836548 0.27696430683135986 
vt 0.47941017150878906 0.5268058180809021 
vt 0.05860868841409683 0.5430642366409302 
vt 0.27314189076423645 0.7300944924354553 
vt 0.017638400197029114 0.9823923110961914 
vt 0.46547791361808777 0.9393484592437744 
vt 0.7353859543800354 0.7711498737335205 
vt 0.9542877078056335 0.48270925879478455 
vt 0.7219259738922119 0.28690651059150696 
vt 0.9847497940063477 0.024315599352121353 
vt 0.5196720361709595 0.059405699372291565 
vt 0.22792106866836548 0.27696430683135986 
vt 0.47941017150878906 0.5268058180809021 
vt 0.05860868841409683 0.5430642366409302 
vt 0.27314189076423645 0.7300944924354553 
vt 0.017638400197029114 0.9823923110961914 
vt 0.46547791361808777 0.9393484592437744 
vt 0.7353859543800354 0.7711498737335205 
vt 0.9542877078056335 0.48270925879478455 
vt 0.7219259738922119 0.28690651059150696 
vt 0.9847497940063477 0.024315599352121353 
vt 0.5196720361709595 0.059405699372291565 
vt 0.22792106866836548 0.27696430683135986 
vt 0.47941017150878906 0.5268058180809021 
vt 0.05860868841409683 0.5430642366409302 
vt 0.27314189076423645 0.7300944924354553 
vt 0.017638400197029114 0.9823923110961914 
vt 0.46547791361808777 0.9393484592437744 
vt 0.7353859543800354 0.7711498737335205 
vt 0.9542877078056335 0.48270925879478455 
vt 0.7219259738922119 0.28690651059150696 
vt 0.9847497940063477 0.024315599352121353 
vt 0.5196720361709595 0.059405699372291565 
vt 0.22792106866836548 0.27696430683135986 
vt 0.47941017150878906 0.5268058180809021 
vt 0.05860868841409683 0.5430642366409302 
vt 0.27314189076423645 0.7300944924354553 
vt 0.017638400197029114 0.9823923110961914 
vt 0.46547791361808777 0.9393484592437744 
vt 0.7353859543800354 0.7711498737335205 
s on 
f 1/1/1 2/2/2 3/3/3 
f 2/2/2 2/2/2 3/3/3 
f 3/3/3 2/2/2 4/4/4 
f 2/2/2 2/2/2 4/4/4 
f 4/4/4 2/2/2 5/5/5 
f 2/2/2 6/6/6 5/5/5 
f 5/5/5 6/6/6 7/7/7 
f 6/6/6 8/8/8 7/7/7 
f 7/7/7 8/8/8 9/9/9 
f 8/8/8 8/8/8 9/9/9 
f 9/9/9 8/8/8 10/10/10 
f 8/8/8 8/8/8 10/10/10 
f 10/10/10 8/8/8 11/11/11 
f 8/8/8 6/6/6 11/11/11 
f 11/11/11 6/6/6 1/1/1 
f 6/6/6 2/2/2 1/1/1 
f 1/1/1 2/2/2 2/2/2 
f 2/2/2 12/12/12 2/2/2 
f 2/2/2 12/12/12 12/12/12 
f 12/12/12 13/13/13 12/12/12 
f 12/12/12 13/13/13 14/14/14 
f 13/13/13 13/13/13 14/14/14 
f 14/14/14 13/13/13 15/15/15 
f 13/13/13 13/13/13 15/15/15 
f 15/15/15 13/13/13 16/16/16 
f 13/13/13 17/17/17 16/16/16 
f 16/16/16 17/17/17 18/18/18 
f 17/17/17 19/19/19 18/18/18 
f 18/18/18 19/19/19 20/20/20 
f 19/19/19 19/19/19 20/20/20 
f 20/20/20 19/19/19 21/21/21 
f 19/19/19 19/19/19 21/21/21 
f 21/21/21 19/19/19 22/22/22 
f 19/19/19 17/17/17 22/22/22 
f 22/22/22 17/17/17 12/12/12 
f 17/17/17 13/13/13 12/12/12 
f 12/12/12 13/13/13 13/13/13 
f 13/13/13 23/23/23 13/13/13 
f 13/13/13 23/23/23 23/23/23 
f 23/23/23 24/24/24 23/23/23 
f 23/23/23 24/24/24 25/25/25 
f 24/24/24 24/24/24 25/25/25 
f 25/25/25 24/24/24 26/26/26 
f 24/24/24 24/24/24 26/26/26 
f 26/26/26 24/24/24 27/27/27 
f 24/24/24 28/28/28 27/27/27 
f 27/27/27 28/28/28 29/29/29 
f 28/28/28 30/30/30 29/29/29 
f 29/29/29 30/30/30 31/31/31 
f 30/30/30 30/30/30 31/31/31 
f 31/31/31 30/30/30 32/32/32 
f 30/30/30 30/30/30 32/32/32 
f 32/32/32 30/30/30 33/33/33 
f 30/30/30 28/28/28 33/33/33 
f 33/33/33 28/28/28 23/23/23 
f 28/28/28 24/24/24 23/23/23 
f 23/23/23 24/24/24 24/24/24 
f 24/24/24 34/34/34 24/24/24 
f 24/24/24 34/34/34 34/34/34 
f 34/34/34 35/35/35 34/34/34 
f 34/34/34 35/35/35 36/36/36 
f 35/35/35 35/35/35 36/36/36 
f 36/36/36 35/35/35 37/37/37 
f 35/35/35 35/35/35 37/37/37 
f 37/37/37 35/35/35 38/38/38 
f 35/35/35 39/39/39 38/38/38 
f 38/38/38 39/39/39 40/40/40 
f 39/39/39 41/41/41 40/40/40 
f 40/40/40 41/41/41 42/42/42 
f 41/41/41 41/41/41 42/42/42 
f 42/42/42 41/41/41 43/43/43 
f 41/41/41 41/41/41 43/43/43 
f 43/43/43 41/41/41 44/44/44 
f 41/41/41 39/39/39 44/44/44 
f 44/44/44 39/39/39 34/34/34 
f 39/39/39 35/35/35 34/34/34 
f 34/34/34 35/35/35 35/35/35 
f 35/35/35 45/45/45 35/35/35 
f 35/35/35 45/45/45 45/45/45 
f 45/45/45 46/46/46 45/45/45 
f 45/45/45 46/46/46 47/47/47 
f 46/46/46 46/46/46 47/47/47 
f 47/47/47 46/46/46 48/48/48 
f 46/46/46 46/46/46 48/48/48 
f 48/48/48 46/46/46 49/49/49 
f 46/46/46 50/50/50 49/49/49 
f 49/49/49 50/50/50 51/51/51 
f 50/50/50 52/52/52 51/51/51 
f 51/51/51 52/52/52 53/53/53 
f 52/52/52 52/52/52 53/53/53 
f 53/53/53 52/52/52 54/54/54 
f 52/52/52 52/52/52 54/54/54 
f 54/54/54 52/52/52 55/55/55 
f 52/52/52 50/50/50 55/55/55 
f 55/55/55 50/50/50 45/45/45 
f 50/50/50 46/46/46 45/45/45 
f 45/45/45 46/46/46 46/46/46 
f 46/46/46 56/56/56 46/46/46 
f 46/46/46 56/56/56 56/56/56 
f 56/56/56 57/57/57 56/56/56 
f 56/56/56 57/57/57 58/58/58 
f 57/57/57 57/57/57 58/58/58 
f 58/58/58 57/57/57 59/59/59 
f 57/57/57 57/57/57 59/59/59 
f 59/59/59 57/57/57 60/60/60 
f 57/57/57 61/61/61 60/60/60 
f 60/60/60 61/61/61 62/62/62 
f 61/61/61 63/63/63 62/62/62 
f 62/62/62 63/63/63 64/64/64 
f 63/63/63 63/63/63 64/64/64 
f 64/64/64 63/63/63 65/65/65 
f 63/63/63 63/63/63 65/65/65 
f 65/65/65 63/63/63 66/66/66 
f 63/63/63 61/61/61 66/66/66 
f 66/66/66 61/61/61 56/56/56 
f 61/61/61 57/57/57 56/56/56 

